# xmcd CD database file
#
# Track frame offsets:
#	183
#	11995
#	23968
#	36840
#	49735
#	61925
#	74683
#	88103
#	100693
#	114273
#	127230
#	139023
#	149918
#	162823
#	176420
#	189483
#	203758
#	217553
#
# Disc length: 3084 seconds
#
# Revision: 1
# Processed by: cddbd v1.4PL0 Copyright (c) Steve Scherf et al.
# Submitted via: CDex 1.50beta10
#
DISCID=060c0a12
DTITLE=Bukka White - Good Gin Blues
DYEAR=1940
DGENRE=Blues
TTITLE0=Aberdeen Mississippi blues
TTITLE1=Bukka's jitterbug swing
TTITLE2=Special stream line
TTITLE3=High fever blues
TTITLE4=District attorney blues
TTITLE5=Fixin' to die blues
TTITLE6=Black train blues
TTITLE7=Strange place blues
TTITLE8=Where can I change my clothes
TTITLE9=Sleepy man blues
TTITLE10=Parchman farm blues
TTITLE11=Good gin blues
TTITLE12=Pinebluff Arkansas
TTITLE13=Shake 'em on down
TTITLE14=The New Frisco train
TTITLE15=The Panama limited
TTITLE16=I am in the heavenly way
TTITLE17=Promise true and grand
EXTD=YEAR: 1940
EXTT0=
EXTT1=
EXTT2=
EXTT3=
EXTT4=
EXTT5=
EXTT6=
EXTT7=
EXTT8=
EXTT9=
EXTT10=
EXTT11=
EXTT12=
EXTT13=
EXTT14=
EXTT15=
EXTT16=
EXTT17=
PLAYORDER=
